<svg xmlns="http://www.w3.org/2000/svg">
    <symbol fill="none"  id="twiter" viewBox="0 0 19 15" xmlns="http://www.w3.org/2000/svg">
        <path d="M18.2932 2.41071C17.7947 3.13988 17.1921 3.76116 16.4852 4.27455C16.4927 4.37872 16.4964 4.53497 16.4964 4.7433C16.4964 5.71057 16.355 6.67783 16.0723 7.64509C15.7895 8.60491 15.358 9.52753 14.7776 10.4129C14.2047 11.2984 13.5202 12.0833 12.7241 12.7679C11.9279 13.4449 10.9681 13.9881 9.84459 14.3973C8.72108 14.7991 7.51944 15 6.23968 15C4.22331 15 2.37807 14.4606 0.703962 13.3817C0.964379 13.4115 1.25456 13.4263 1.5745 13.4263C3.2486 13.4263 4.74042 12.9129 6.04994 11.8862C5.26869 11.8713 4.56929 11.6332 3.95173 11.1719C3.33417 10.7031 2.91006 10.1079 2.67941 9.38616C2.92494 9.42336 3.15188 9.44196 3.36021 9.44196C3.68015 9.44196 3.99637 9.40104 4.30887 9.3192C3.47554 9.14807 2.78358 8.73512 2.23298 8.08036C1.68983 7.41815 1.41825 6.65179 1.41825 5.78125V5.73661C1.9242 6.01935 2.46735 6.17188 3.04771 6.1942C2.55664 5.86682 2.16602 5.43899 1.87584 4.91071C1.58566 4.38244 1.44057 3.80952 1.44057 3.19196C1.44057 2.5372 1.60426 1.9308 1.93164 1.37277C2.83194 2.4814 3.92569 3.37054 5.21289 4.04018C6.50753 4.70238 7.89146 5.07068 9.36468 5.14509C9.30515 4.86235 9.27539 4.58705 9.27539 4.3192C9.27539 3.32217 9.62509 2.47396 10.3245 1.77455C11.0313 1.06771 11.8833 0.714285 12.8803 0.714285C13.922 0.714285 14.7999 1.09375 15.5142 1.85268C16.3252 1.69643 17.0879 1.40625 17.8022 0.982143C17.5269 1.8378 16.9986 2.5 16.2174 2.96875C16.9093 2.89435 17.6013 2.70833 18.2932 2.41071Z" fill="currentColor"/>
    </symbol>

    <symbol fill="none" id="facebook" viewBox="0 0 18 18" xmlns="http://www.w3.org/2000/svg">
        <path d="M14.3544 0.285715C15.2398 0.285715 15.995 0.601934 16.62 1.23438C17.2524 1.85938 17.5686 2.61458 17.5686 3.5V14.2143C17.5686 15.0997 17.2524 15.8549 16.62 16.4799C15.995 17.1124 15.2398 17.4286 14.3544 17.4286H12.2561V10.7879H14.4771L14.8119 8.19866H12.2561V6.54688C12.2561 6.13021 12.3417 5.81771 12.5128 5.60938C12.6914 5.40104 13.0337 5.29688 13.5396 5.29688L14.9012 5.28571V2.97545C14.4325 2.90848 13.7703 2.875 12.9146 2.875C11.9027 2.875 11.0917 3.17262 10.4816 3.76786C9.87891 4.3631 9.57757 5.20387 9.57757 6.29018V8.19866H7.34542V10.7879H9.57757V17.4286H3.64007C2.75465 17.4286 1.99572 17.1124 1.36328 16.4799C0.738281 15.8549 0.425781 15.0997 0.425781 14.2143V3.5C0.425781 2.61458 0.738281 1.85938 1.36328 1.23438C1.99572 0.601934 2.75465 0.285715 3.64007 0.285715H14.3544Z" fill="currentColor"/>
    </symbol>

    <symbol fill="none" id="instagram" viewBox="0 0 18 18" xmlns="http://www.w3.org/2000/svg">
        <path d="M11.0173 10.8772C11.5753 10.3192 11.8544 9.64583 11.8544 8.85714C11.8544 8.06845 11.5753 7.39509 11.0173 6.83705C10.4593 6.27902 9.7859 6 8.99721 6C8.20852 6 7.53516 6.27902 6.97712 6.83705C6.41908 7.39509 6.14007 8.06845 6.14007 8.85714C6.14007 9.64583 6.41908 10.3192 6.97712 10.8772C7.53516 11.4353 8.20852 11.7143 8.99721 11.7143C9.7859 11.7143 10.4593 11.4353 11.0173 10.8772ZM12.111 5.7433C12.9667 6.59896 13.3945 7.6369 13.3945 8.85714C13.3945 10.0774 12.9667 11.1153 12.111 11.971C11.2554 12.8266 10.2174 13.2545 8.99721 13.2545C7.77697 13.2545 6.73903 12.8266 5.88337 11.971C5.02772 11.1153 4.59989 10.0774 4.59989 8.85714C4.59989 7.6369 5.02772 6.59896 5.88337 5.7433C6.73903 4.88765 7.77697 4.45982 8.99721 4.45982C10.2174 4.45982 11.2554 4.88765 12.111 5.7433ZM14.2985 3.5558C14.4994 3.7567 14.5999 3.99851 14.5999 4.28125C14.5999 4.56399 14.4994 4.8058 14.2985 5.0067C14.0977 5.20759 13.8558 5.30804 13.5731 5.30804C13.2904 5.30804 13.0485 5.20759 12.8477 5.0067C12.6468 4.8058 12.5463 4.56399 12.5463 4.28125C12.5463 3.99851 12.6468 3.7567 12.8477 3.5558C13.0485 3.35491 13.2904 3.25446 13.5731 3.25446C13.8558 3.25446 14.0977 3.35491 14.2985 3.5558ZM9.84542 1.82589C9.33203 1.82589 9.04929 1.82589 8.99721 1.82589C8.94513 1.82589 8.65867 1.82589 8.13783 1.82589C7.62444 1.81845 7.23382 1.81845 6.96596 1.82589C6.6981 1.82589 6.33724 1.83705 5.88337 1.85938C5.43694 1.87426 5.05376 1.91146 4.73382 1.97098C4.42132 2.02307 4.15718 2.09003 3.94141 2.17188C3.56938 2.32068 3.242 2.53646 2.95926 2.8192C2.67653 3.10193 2.46075 3.42932 2.31194 3.80134C2.2301 4.01711 2.15941 4.28497 2.09989 4.60491C2.04781 4.91741 2.0106 5.3006 1.98828 5.75446C1.9734 6.20089 1.96224 6.55804 1.9548 6.82589C1.9548 7.09375 1.9548 7.4881 1.9548 8.00893C1.96224 8.52232 1.96596 8.80506 1.96596 8.85714C1.96596 8.90923 1.96224 9.19568 1.9548 9.71652C1.9548 10.2299 1.9548 10.6205 1.9548 10.8884C1.96224 11.1562 1.9734 11.5171 1.98828 11.971C2.0106 12.4174 2.04781 12.8006 2.09989 13.1205C2.15941 13.433 2.2301 13.6972 2.31194 13.9129C2.46075 14.285 2.67653 14.6124 2.95926 14.8951C3.242 15.1778 3.56938 15.3936 3.94141 15.5424C4.15718 15.6243 4.42132 15.6949 4.73382 15.7545C5.05376 15.8065 5.43694 15.8438 5.88337 15.8661C6.33724 15.881 6.6981 15.8921 6.96596 15.8996C7.23382 15.8996 7.62444 15.8996 8.13783 15.8996C8.65867 15.8921 8.94513 15.8884 8.99721 15.8884C9.04929 15.8884 9.33203 15.8921 9.84542 15.8996C10.3663 15.8996 10.7606 15.8996 11.0285 15.8996C11.2963 15.8921 11.6535 15.881 12.0999 15.8661C12.5538 15.8438 12.9369 15.8065 13.2494 15.7545C13.5694 15.6949 13.8372 15.6243 14.053 15.5424C14.425 15.3936 14.7524 15.1778 15.0352 14.8951C15.3179 14.6124 15.5337 14.285 15.6825 13.9129C15.7643 13.6972 15.8313 13.433 15.8834 13.1205C15.9429 12.8006 15.9801 12.4174 15.995 11.971C16.0173 11.5171 16.0285 11.1562 16.0285 10.8884C16.0359 10.6205 16.0359 10.2299 16.0285 9.71652C16.0285 9.19568 16.0285 8.90923 16.0285 8.85714C16.0285 8.80506 16.0285 8.52232 16.0285 8.00893C16.0359 7.4881 16.0359 7.09375 16.0285 6.82589C16.0285 6.55804 16.0173 6.20089 15.995 5.75446C15.9801 5.3006 15.9429 4.91741 15.8834 4.60491C15.8313 4.28497 15.7643 4.01711 15.6825 3.80134C15.5337 3.42932 15.3179 3.10193 15.0352 2.8192C14.7524 2.53646 14.425 2.32068 14.053 2.17188C13.8372 2.09003 13.5694 2.02307 13.2494 1.97098C12.9369 1.91146 12.5538 1.87426 12.0999 1.85938C11.6535 1.83705 11.2963 1.82589 11.0285 1.82589C10.7606 1.81845 10.3663 1.81845 9.84542 1.82589ZM17.5128 5.3192C17.55 5.97396 17.5686 7.15327 17.5686 8.85714C17.5686 10.561 17.55 11.7403 17.5128 12.3951C17.4384 13.9427 16.9771 15.1406 16.1289 15.9888C15.2807 16.8371 14.0828 17.2984 12.5352 17.3728C11.8804 17.41 10.7011 17.4286 8.99721 17.4286C7.29334 17.4286 6.11403 17.41 5.45926 17.3728C3.91164 17.2984 2.71373 16.8371 1.86551 15.9888C1.0173 15.1406 0.55599 13.9427 0.481585 12.3951C0.444382 11.7403 0.425781 10.561 0.425781 8.85714C0.425781 7.15327 0.444382 5.97396 0.481585 5.3192C0.55599 3.77158 1.0173 2.57366 1.86551 1.72545C2.71373 0.877232 3.91164 0.415922 5.45926 0.341518C6.11403 0.304316 7.29334 0.285715 8.99721 0.285715C10.7011 0.285715 11.8804 0.304316 12.5352 0.341518C14.0828 0.415922 15.2807 0.877232 16.1289 1.72545C16.9771 2.57366 17.4384 3.77158 17.5128 5.3192Z" fill="currentColor"/>
    </symbol>

    <symbol fill="none" id="a-fb" viewBox="0 0 16 17" xmlns="http://www.w3.org/2000/svg">
        <path d="M12.8189 0.857143C13.6158 0.857143 14.2955 1.14174 14.858 1.71094C15.4272 2.27344 15.7118 2.95313 15.7118 3.75V13.3929C15.7118 14.1897 15.4272 14.8694 14.858 15.4319C14.2955 16.0011 13.6158 16.2857 12.8189 16.2857H10.9305V10.3092H12.9294L13.2307 7.97879H10.9305V6.49219C10.9305 6.11719 11.0075 5.83594 11.1615 5.64844C11.3223 5.46094 11.6303 5.36719 12.0856 5.36719L13.3111 5.35714V3.2779C12.8892 3.21763 12.2932 3.1875 11.5231 3.1875C10.6124 3.1875 9.88252 3.45536 9.33341 3.99107C8.791 4.52679 8.5198 5.28348 8.5198 6.26116V7.97879H6.51087V10.3092H8.5198V16.2857H3.17605C2.37917 16.2857 1.69614 16.0011 1.12694 15.4319C0.56444 14.8694 0.28319 14.1897 0.28319 13.3929V3.75C0.28319 2.95313 0.56444 2.27344 1.12694 1.71094C1.69614 1.14174 2.37917 0.857143 3.17605 0.857143H12.8189Z" fill="currentColor"/>
    </symbol>
    
    <symbol fill="none" id="a-go" viewBox="0 0 24 15" xmlns="http://www.w3.org/2000/svg">
        <path d="M14.9459 7.74219C14.9459 9.13504 14.6546 10.3772 14.072 11.4688C13.4894 12.5536 12.6591 13.4007 11.5809 14.01C10.5028 14.6261 9.26731 14.9342 7.87445 14.9342C6.87669 14.9342 5.92244 14.74 5.01173 14.3516C4.10102 13.9632 3.31753 13.4408 2.66128 12.7846C2.00503 12.1283 1.48271 11.3449 1.09432 10.4342C0.705927 9.52344 0.51173 8.5692 0.51173 7.57143C0.51173 6.57366 0.705927 5.61942 1.09432 4.70871C1.48271 3.79799 2.00503 3.01451 2.66128 2.35826C3.31753 1.70201 4.10102 1.17969 5.01173 0.791294C5.92244 0.402902 6.87669 0.208706 7.87445 0.208706C9.78963 0.208706 11.4336 0.851562 12.8064 2.13728L10.8075 4.0558C10.024 3.29911 9.04633 2.92076 7.87445 2.92076C7.05079 2.92076 6.2874 3.12835 5.58428 3.54353C4.88785 3.95871 4.33539 4.52455 3.92691 5.24107C3.51843 5.95089 3.31419 6.72768 3.31419 7.57143C3.31419 8.41518 3.51843 9.19531 3.92691 9.91183C4.33539 10.6217 4.88785 11.1842 5.58428 11.5993C6.2874 12.0145 7.05079 12.2221 7.87445 12.2221C8.43026 12.2221 8.93919 12.1451 9.40124 11.9911C9.86999 11.8371 10.255 11.6462 10.5564 11.4185C10.8577 11.1842 11.1189 10.9196 11.3399 10.625C11.5675 10.3304 11.7316 10.0525 11.832 9.79129C11.9392 9.53013 12.0128 9.28237 12.053 9.04799H7.87445V6.51674H14.8253C14.9057 6.93862 14.9459 7.3471 14.9459 7.74219ZM23.6546 6.51674V8.62612H21.5553V10.7254H19.4459V8.62612H17.3466V6.51674H19.4459V4.41741H21.5553V6.51674H23.6546Z" fill="currentColor"/>
    </symbol>
    
    <symbol fill="none" id="a-in" viewBox="0 0 16 17" xmlns="http://www.w3.org/2000/svg">
        <path d="M9.85907 10.3895C10.3613 9.88728 10.6124 9.28125 10.6124 8.57143C10.6124 7.86161 10.3613 7.25558 9.85907 6.75335C9.35684 6.25112 8.75082 6 8.04099 6C7.33117 6 6.72515 6.25112 6.22291 6.75335C5.72068 7.25558 5.46957 7.86161 5.46957 8.57143C5.46957 9.28125 5.72068 9.88728 6.22291 10.3895C6.72515 10.8917 7.33117 11.1429 8.04099 11.1429C8.75082 11.1429 9.35684 10.8917 9.85907 10.3895ZM10.8434 5.76897C11.6135 6.53906 11.9986 7.47321 11.9986 8.57143C11.9986 9.66964 11.6135 10.6038 10.8434 11.3739C10.0734 12.144 9.13921 12.529 8.04099 12.529C6.94278 12.529 6.00863 12.144 5.23854 11.3739C4.46845 10.6038 4.0834 9.66964 4.0834 8.57143C4.0834 7.47321 4.46845 6.53906 5.23854 5.76897C6.00863 4.99888 6.94278 4.61384 8.04099 4.61384C9.13921 4.61384 10.0734 4.99888 10.8434 5.76897ZM12.8122 3.80022C12.993 3.98103 13.0834 4.19866 13.0834 4.45312C13.0834 4.70759 12.993 4.92522 12.8122 5.10603C12.6314 5.28683 12.4138 5.37723 12.1593 5.37723C11.9048 5.37723 11.6872 5.28683 11.5064 5.10603C11.3256 4.92522 11.2352 4.70759 11.2352 4.45312C11.2352 4.19866 11.3256 3.98103 11.5064 3.80022C11.6872 3.61942 11.9048 3.52902 12.1593 3.52902C12.4138 3.52902 12.6314 3.61942 12.8122 3.80022ZM8.80439 2.2433C8.34233 2.2433 8.08787 2.2433 8.04099 2.2433C7.99412 2.2433 7.73631 2.2433 7.26756 2.2433C6.8055 2.23661 6.45394 2.23661 6.21287 2.2433C5.9718 2.2433 5.64702 2.25335 5.23854 2.27344C4.83675 2.28683 4.49189 2.32031 4.20394 2.37388C3.92269 2.42076 3.68497 2.48103 3.49077 2.55469C3.15595 2.68862 2.86131 2.88281 2.60684 3.13728C2.35238 3.39174 2.15818 3.68638 2.02425 4.02121C1.95059 4.2154 1.88698 4.45647 1.8334 4.74442C1.78653 5.02567 1.75305 5.37054 1.73296 5.77902C1.71957 6.1808 1.70952 6.50223 1.70282 6.7433C1.70282 6.98438 1.70282 7.33929 1.70282 7.80804C1.70952 8.27009 1.71287 8.52455 1.71287 8.57143C1.71287 8.6183 1.70952 8.87612 1.70282 9.34487C1.70282 9.80692 1.70282 10.1585 1.70282 10.3996C1.70952 10.6406 1.71957 10.9654 1.73296 11.3739C1.75305 11.7757 1.78653 12.1205 1.8334 12.4085C1.88698 12.6897 1.95059 12.9275 2.02425 13.1217C2.15818 13.4565 2.35238 13.7511 2.60684 14.0056C2.86131 14.26 3.15595 14.4542 3.49077 14.5882C3.68497 14.6618 3.92269 14.7254 4.20394 14.779C4.49189 14.8259 4.83675 14.8594 5.23854 14.8795C5.64702 14.8929 5.9718 14.9029 6.21287 14.9096C6.45394 14.9096 6.8055 14.9096 7.26756 14.9096C7.73631 14.9029 7.99412 14.8996 8.04099 14.8996C8.08787 14.8996 8.34233 14.9029 8.80439 14.9096C9.27314 14.9096 9.62805 14.9096 9.86912 14.9096C10.1102 14.9029 10.4316 14.8929 10.8334 14.8795C11.2419 14.8594 11.5868 14.8259 11.868 14.779C12.1559 14.7254 12.397 14.6618 12.5912 14.5882C12.926 14.4542 13.2207 14.26 13.4751 14.0056C13.7296 13.7511 13.9238 13.4565 14.0577 13.1217C14.1314 12.9275 14.1917 12.6897 14.2385 12.4085C14.2921 12.1205 14.3256 11.7757 14.339 11.3739C14.3591 10.9654 14.3691 10.6406 14.3691 10.3996C14.3758 10.1585 14.3758 9.80692 14.3691 9.34487C14.3691 8.87612 14.3691 8.6183 14.3691 8.57143C14.3691 8.52455 14.3691 8.27009 14.3691 7.80804C14.3758 7.33929 14.3758 6.98438 14.3691 6.7433C14.3691 6.50223 14.3591 6.1808 14.339 5.77902C14.3256 5.37054 14.2921 5.02567 14.2385 4.74442C14.1917 4.45647 14.1314 4.2154 14.0577 4.02121C13.9238 3.68638 13.7296 3.39174 13.4751 3.13728C13.2207 2.88281 12.926 2.68862 12.5912 2.55469C12.397 2.48103 12.1559 2.42076 11.868 2.37388C11.5868 2.32031 11.2419 2.28683 10.8334 2.27344C10.4316 2.25335 10.1102 2.2433 9.86912 2.2433C9.62805 2.23661 9.27314 2.23661 8.80439 2.2433ZM15.7051 5.38728C15.7385 5.97656 15.7553 7.03795 15.7553 8.57143C15.7553 10.1049 15.7385 11.1663 15.7051 11.7556C15.6381 13.1484 15.2229 14.2266 14.4595 14.99C13.6961 15.7533 12.618 16.1685 11.2251 16.2355C10.6359 16.269 9.57448 16.2857 8.04099 16.2857C6.50751 16.2857 5.44613 16.269 4.85684 16.2355C3.46398 16.1685 2.38586 15.7533 1.62247 14.99C0.859074 14.2266 0.443895 13.1484 0.376931 11.7556C0.343449 11.1663 0.326708 10.1049 0.326708 8.57143C0.326708 7.03795 0.343449 5.97656 0.376931 5.38728C0.443895 3.99442 0.859074 2.91629 1.62247 2.1529C2.38586 1.38951 3.46398 0.97433 4.85684 0.907366C5.44613 0.873884 6.50751 0.857143 8.04099 0.857143C9.57448 0.857143 10.6359 0.873884 11.2251 0.907366C12.618 0.97433 13.6961 1.38951 14.4595 2.1529C15.2229 2.91629 15.6381 3.99442 15.7051 5.38728Z" fill="currentColor"/>
    </symbol>
    
    <symbol fill="none" id="a-li" viewBox="0 0 16 15" xmlns="http://www.w3.org/2000/svg">
        <path d="M3.78879 4.84933V14.8036H0.474053V4.84933H3.78879ZM3.99972 1.77567C4.00642 2.26451 3.83566 2.67299 3.48745 3.00112C3.14593 3.32924 2.69392 3.4933 2.13142 3.4933H2.11133C1.56222 3.4933 1.12026 3.32924 0.785437 3.00112C0.450616 2.67299 0.283205 2.26451 0.283205 1.77567C0.283205 1.28013 0.453964 0.871652 0.795482 0.550223C1.1437 0.222098 1.5957 0.0580353 2.15151 0.0580353C2.70731 0.0580353 3.15262 0.222098 3.48745 0.550223C3.82227 0.871652 3.99303 1.28013 3.99972 1.77567ZM15.7118 9.09821V14.8036H12.4071V9.47991C12.4071 8.77679 12.2698 8.22768 11.9953 7.83259C11.7274 7.4308 11.3055 7.22991 10.7296 7.22991C10.3078 7.22991 9.95285 7.3471 9.6649 7.58147C9.38365 7.80915 9.17271 8.09375 9.03209 8.43527C8.95843 8.63616 8.9216 8.90737 8.9216 9.24888V14.8036H5.61691C5.6303 12.1317 5.637 9.9654 5.637 8.30469C5.637 6.64397 5.63365 5.6529 5.62696 5.33147L5.61691 4.84933H8.9216V6.29576H8.90151C9.03544 6.08147 9.17271 5.89397 9.31334 5.73326C9.45396 5.57254 9.64146 5.39844 9.87584 5.21094C10.1169 5.02344 10.4082 4.87946 10.7497 4.77902C11.0979 4.67187 11.483 4.6183 11.9049 4.6183C13.0499 4.6183 13.9707 5 14.6671 5.76339C15.3636 6.52009 15.7118 7.6317 15.7118 9.09821Z" fill="currentColor"/>
    </symbol>
    
    <symbol fill="none" id="a-tw" viewBox="0 0 17 13" xmlns="http://www.w3.org/2000/svg">
        <path d="M16.4792 1.66964C16.0305 2.32589 15.4881 2.88504 14.8519 3.3471C14.8586 3.44085 14.862 3.58147 14.862 3.76897C14.862 4.63951 14.7347 5.51004 14.4803 6.38058C14.2258 7.24442 13.8374 8.07478 13.3151 8.87165C12.7995 9.66853 12.1834 10.375 11.4669 10.9911C10.7504 11.6004 9.88653 12.0893 8.87537 12.4576C7.86421 12.8192 6.78274 13 5.63095 13C3.81622 13 2.15551 12.5145 0.648811 11.5435C0.883185 11.5703 1.14435 11.5837 1.43229 11.5837C2.93899 11.5837 4.28162 11.1217 5.46019 10.1975C4.75707 10.1842 4.12761 9.96987 3.5718 9.55469C3.016 9.13281 2.6343 8.5971 2.42671 7.94754C2.64769 7.98103 2.85194 7.99777 3.03944 7.99777C3.32738 7.99777 3.61198 7.96094 3.89323 7.88728C3.14323 7.73326 2.52046 7.36161 2.02493 6.77232C1.53609 6.17634 1.29167 5.48661 1.29167 4.70312V4.66295C1.74702 4.91741 2.23586 5.05469 2.75819 5.07478C2.31622 4.78013 1.96466 4.39509 1.7035 3.91964C1.44234 3.4442 1.31176 2.92857 1.31176 2.37277C1.31176 1.78348 1.45908 1.23772 1.75372 0.735491C2.56399 1.73326 3.54836 2.53348 4.70685 3.13616C5.87202 3.73214 7.11756 4.06362 8.44345 4.13058C8.38988 3.87612 8.3631 3.62835 8.3631 3.38728C8.3631 2.48995 8.67783 1.72656 9.30729 1.0971C9.94345 0.460938 10.7102 0.142857 11.6075 0.142857C12.545 0.142857 13.3352 0.484375 13.9781 1.16741C14.708 1.02679 15.3943 0.765625 16.0372 0.383928C15.7894 1.15402 15.314 1.75 14.6109 2.17188C15.2336 2.10491 15.8564 1.9375 16.4792 1.66964Z" fill="currentColor"/>
    </symbol>
    
    <symbol fill="none" id="a-yo" viewBox="0 0 19 13" xmlns="http://www.w3.org/2000/svg">
        <path d="M8.09823 8.90179L12.9598 6.39062L8.09823 3.84933V8.90179ZM9.95649 0.243303C11.0815 0.243303 12.1663 0.260045 13.211 0.293527C14.2623 0.320313 15.0324 0.350447 15.5212 0.383928L16.2545 0.424107C16.2612 0.424107 16.3181 0.430804 16.4252 0.444197C16.5324 0.450892 16.6094 0.460938 16.6563 0.474331C16.7031 0.481027 16.7802 0.494419 16.8873 0.514509C17.0011 0.534598 17.0982 0.561384 17.1786 0.594866C17.2589 0.628348 17.3527 0.671875 17.4598 0.725447C17.567 0.779018 17.6708 0.845982 17.7712 0.92634C17.8717 1 17.9688 1.08705 18.0625 1.1875C18.1027 1.22768 18.1529 1.2913 18.2132 1.37835C18.2802 1.45871 18.3772 1.6529 18.5045 1.96094C18.6384 2.26897 18.7288 2.60714 18.7757 2.97545C18.8293 3.40402 18.8694 3.86272 18.8962 4.35156C18.9297 4.83371 18.9498 5.21205 18.9565 5.48661V5.88839V7.25446C18.9632 8.22545 18.9029 9.19643 18.7757 10.1674C18.7288 10.5357 18.6451 10.8705 18.5246 11.1719C18.404 11.4665 18.2969 11.6708 18.2031 11.7846L18.0625 11.9554C17.9688 12.0558 17.8717 12.1462 17.7712 12.2266C17.6708 12.3002 17.567 12.3638 17.4598 12.4174C17.3527 12.4643 17.2589 12.5045 17.1786 12.5379C17.0982 12.5714 17.0011 12.5982 16.8873 12.6183C16.7802 12.6384 16.6998 12.6551 16.6462 12.6685C16.5993 12.6752 16.5223 12.6853 16.4152 12.6987C16.3147 12.7054 16.2612 12.7087 16.2545 12.7087C14.5737 12.8359 12.4743 12.8996 9.95649 12.8996C8.57033 12.8862 7.36497 12.8661 6.34042 12.8393C5.32256 12.8058 4.65292 12.779 4.33149 12.7589L3.8393 12.7188L3.47769 12.6786C3.23662 12.6451 3.05247 12.6116 2.92524 12.5781C2.8047 12.5446 2.63394 12.4743 2.41296 12.3672C2.19868 12.26 2.01118 12.1228 1.85046 11.9554C1.81028 11.9152 1.75671 11.8549 1.68975 11.7746C1.62948 11.6875 1.53238 11.49 1.39845 11.1819C1.27122 10.8739 1.18417 10.5357 1.13729 10.1674C1.08372 9.73884 1.04019 9.28348 1.00671 8.80134C0.979927 8.3125 0.963186 7.9308 0.95649 7.65625V7.25446V5.88839C0.949793 4.91741 1.01006 3.94643 1.13729 2.97545C1.18417 2.60714 1.26787 2.27567 1.38841 1.98103C1.50894 1.67969 1.61609 1.4721 1.70984 1.35826L1.85046 1.1875C1.94421 1.08705 2.04131 1 2.14176 0.92634C2.2422 0.845982 2.346 0.779018 2.45314 0.725447C2.56028 0.671875 2.65403 0.628348 2.73439 0.594866C2.81475 0.561384 2.9085 0.534598 3.01564 0.514509C3.12948 0.494419 3.20984 0.481027 3.25671 0.474331C3.30359 0.460938 3.3806 0.450892 3.48774 0.444197C3.59488 0.430804 3.6518 0.424107 3.6585 0.424107C5.3393 0.303572 7.43863 0.243303 9.95649 0.243303Z" fill="currentColor"/>
    </symbol>
</svg>